{
	"accessors" : 
	[
		{
			"bufferView" : 2,
			"byteOffset" : 0,
			"componentType" : 5126,
			"count" : 4254,
			"max" : 
			[
				1,
				1,
				1,
				1
			],
			"min" : 
			[
				5.692175545846112e-05,
				0.006584956776350737,
				0.006584956776350737,
				1
			],
			"name" : "accessor_color_m0-PolyPaper21_-616118",
			"type" : "VEC4"
		},
		{
			"bufferView" : 2,
			"byteOffset" : 68064,
			"componentType" : 5126,
			"count" : 9974,
			"max" : 
			[
				1,
				1,
				1,
				1
			],
			"min" : 
			[
				0.006584956776350737,
				0.006584956776350737,
				0.006584956776350737,
				1
			],
			"name" : "accessor_color_m1-PolyPaper21_-614356",
			"type" : "VEC4"
		},
		{
			"bufferView" : 2,
			"byteOffset" : 227648,
			"componentType" : 5126,
			"count" : 23,
			"max" : 
			[
				1,
				1,
				1,
				1
			],
			"min" : 
			[
				1,
				1,
				1,
				1
			],
			"name" : "accessor_color_m2-PolyGem25_-616120",
			"type" : "VEC4"
		},
		{
			"bufferView" : 2,
			"byteOffset" : 228016,
			"componentType" : 5126,
			"count" : 151,
			"max" : 
			[
				0.6800203323364258,
				0.6800203323364258,
				0.6800203323364258,
				0.2509804
			],
			"min" : 
			[
				0.6800203323364258,
				0.6800203323364258,
				0.6800203323364258,
				0.2509804
			],
			"name" : "accessor_color_m3-PolyGlass24_-614358",
			"type" : "VEC4"
		},
		{
			"bufferView" : 0,
			"byteOffset" : 0,
			"componentType" : 5123,
			"count" : 6426,
			"max" : 
			[
				4253
			],
			"min" : 
			[
				0
			],
			"name" : "accessor_indices_0_m0-PolyPaper21_-616118",
			"type" : "SCALAR"
		},
		{
			"bufferView" : 0,
			"byteOffset" : 12852,
			"componentType" : 5123,
			"count" : 15642,
			"max" : 
			[
				9973
			],
			"min" : 
			[
				0
			],
			"name" : "accessor_indices_0_m1-PolyPaper21_-614356",
			"type" : "SCALAR"
		},
		{
			"bufferView" : 0,
			"byteOffset" : 44136,
			"componentType" : 5123,
			"count" : 33,
			"max" : 
			[
				22
			],
			"min" : 
			[
				0
			],
			"name" : "accessor_indices_0_m2-PolyGem25_-616120",
			"type" : "SCALAR"
		},
		{
			"bufferView" : 0,
			"byteOffset" : 44202,
			"componentType" : 5123,
			"count" : 201,
			"max" : 
			[
				150
			],
			"min" : 
			[
				0
			],
			"name" : "accessor_indices_0_m3-PolyGlass24_-614358",
			"type" : "SCALAR"
		},
		{
			"bufferView" : 1,
			"byteOffset" : 51048,
			"componentType" : 5126,
			"count" : 4254,
			"max" : 
			[
				0.9865507,
				0.9998902,
				0.9983161
			],
			"min" : 
			[
				-0.9978184,
				-0.9998903,
				-0.9995881
			],
			"name" : "accessor_normal_m0-PolyPaper21_-616118",
			"type" : "VEC3"
		},
		{
			"bufferView" : 1,
			"byteOffset" : 221784,
			"componentType" : 5126,
			"count" : 9974,
			"max" : 
			[
				0.9759379,
				0.9997531,
				0.995919
			],
			"min" : 
			[
				-0.9867796,
				-0.9997531,
				-0.995919
			],
			"name" : "accessor_normal_m1-PolyPaper21_-614356",
			"type" : "VEC3"
		},
		{
			"bufferView" : 1,
			"byteOffset" : 341748,
			"componentType" : 5126,
			"count" : 23,
			"max" : 
			[
				0.8997011,
				0.9919013,
				0.442577
			],
			"min" : 
			[
				-0.9018532,
				-0.9622366,
				-0.3501547
			],
			"name" : "accessor_normal_m2-PolyGem25_-616120",
			"type" : "VEC3"
		},
		{
			"bufferView" : 1,
			"byteOffset" : 343836,
			"componentType" : 5126,
			"count" : 151,
			"max" : 
			[
				0.6524609,
				0.9990025,
				0.9508262
			],
			"min" : 
			[
				-0.7430504999999999,
				-0.9989448,
				-0.9508371
			],
			"name" : "accessor_normal_m3-PolyGlass24_-614358",
			"type" : "VEC3"
		},
		{
			"bufferView" : 1,
			"byteOffset" : 0,
			"componentType" : 5126,
			"count" : 4254,
			"max" : 
			[
				1.555722,
				3.889195,
				0.2704358
			],
			"min" : 
			[
				-1.402858,
				2.249885,
				-2.8791
			],
			"name" : "accessor_position_m0-PolyPaper21_-616118",
			"type" : "VEC3"
		},
		{
			"bufferView" : 1,
			"byteOffset" : 102096,
			"componentType" : 5126,
			"count" : 9974,
			"max" : 
			[
				1.776634,
				3.809084,
				-1.094076
			],
			"min" : 
			[
				-1.235835,
				2.334862,
				-3.231281
			],
			"name" : "accessor_position_m1-PolyPaper21_-614356",
			"type" : "VEC3"
		},
		{
			"bufferView" : 1,
			"byteOffset" : 341472,
			"componentType" : 5126,
			"count" : 23,
			"max" : 
			[
				0.4408628,
				3.329452,
				-1.1881
			],
			"min" : 
			[
				0.07185037,
				3.241332,
				-1.621465
			],
			"name" : "accessor_position_m2-PolyGem25_-616120",
			"type" : "VEC3"
		},
		{
			"bufferView" : 1,
			"byteOffset" : 342024,
			"componentType" : 5126,
			"count" : 151,
			"max" : 
			[
				1.17771,
				3.653639,
				-1.416618
			],
			"min" : 
			[
				-1.120323,
				2.33684,
				-2.69869
			],
			"name" : "accessor_position_m3-PolyGlass24_-614358",
			"type" : "VEC3"
		}
	],
	"asset" : 
	{
		"copyright" : "Unknown",
		"generator" : "glTF 1-to-2 Upgrader for Google Blocks",
		"version" : "2.0"
	},
	"bufferViews" : 
	[
		{
			"buffer" : 0,
			"byteLength" : 44604,
			"byteOffset" : 0,
			"name" : "ushortBufferView",
			"target" : 34963
		},
		{
			"buffer" : 0,
			"byteLength" : 345648,
			"byteOffset" : 44604,
			"byteStride" : 12,
			"name" : "vec3BufferView",
			"target" : 34962
		},
		{
			"buffer" : 0,
			"byteLength" : 230432,
			"byteOffset" : 390252,
			"byteStride" : 16,
			"name" : "vec4BufferView",
			"target" : 34962
		}
	],
	"buffers" : 
	[
		{
			"byteLength" : 620684,
			"name" : "model",
			"uri" : "model.bin"
		}
	],
	"materials" : 
	[
		{
			"alphaMode" : "OPAQUE",
			"doubleSided" : false,
			"name" : "BlocksPaper",
			"pbrMetallicRoughness" : 
			{
				"baseColorFactor" : 
				[
					1,
					1,
					1,
					1
				],
				"metallicFactor" : 0,
				"roughnessFactor" : 0.6
			}
		},
		{
			"alphaMode" : "BLEND",
			"doubleSided" : false,
			"name" : "BlocksGlass",
			"pbrMetallicRoughness" : 
			{
				"baseColorFactor" : 
				[
					0.2,
					0.2,
					1,
					0.3
				],
				"metallicFactor" : 1,
				"roughnessFactor" : 0.4
			}
		},
		{
			"alphaMode" : "OPAQUE",
			"doubleSided" : true,
			"name" : "BlocksGem",
			"pbrMetallicRoughness" : 
			{
				"baseColorFactor" : 
				[
					1,
					0.4,
					1,
					1
				],
				"metallicFactor" : 0,
				"roughnessFactor" : 0.1
			}
		}
	],
	"meshes" : 
	[
		{
			"name" : "mesh_m0-PolyPaper21_-616118",
			"primitives" : 
			[
				{
					"attributes" : 
					{
						"COLOR_0" : 0,
						"NORMAL" : 8,
						"POSITION" : 12
					},
					"indices" : 4,
					"material" : 0,
					"mode" : 4
				}
			]
		},
		{
			"name" : "mesh_m1-PolyPaper21_-614356",
			"primitives" : 
			[
				{
					"attributes" : 
					{
						"COLOR_0" : 1,
						"NORMAL" : 9,
						"POSITION" : 13
					},
					"indices" : 5,
					"material" : 0,
					"mode" : 4
				}
			]
		},
		{
			"name" : "mesh_m2-PolyGem25_-616120",
			"primitives" : 
			[
				{
					"attributes" : 
					{
						"COLOR_0" : 2,
						"NORMAL" : 10,
						"POSITION" : 14
					},
					"indices" : 6,
					"material" : 2,
					"mode" : 4
				}
			]
		},
		{
			"name" : "mesh_m3-PolyGlass24_-614358",
			"primitives" : 
			[
				{
					"attributes" : 
					{
						"COLOR_0" : 3,
						"NORMAL" : 11,
						"POSITION" : 15
					},
					"indices" : 7,
					"material" : 1,
					"mode" : 4
				}
			]
		}
	],
	"nodes" : 
	[
		{
			"matrix" : 
			[
				1,
				0,
				0,
				0,
				0,
				1,
				0,
				0,
				0,
				0,
				1,
				0,
				0,
				0,
				0,
				1
			],
			"mesh" : 3,
			"name" : "node_MeshObject-1525726656-PolyGlass24"
		},
		{
			"matrix" : 
			[
				1,
				0,
				0,
				0,
				0,
				1,
				0,
				0,
				0,
				0,
				1,
				0,
				0,
				0,
				0,
				1
			],
			"mesh" : 1,
			"name" : "node_MeshObject-2044446720-PolyPaper21"
		},
		{
			"matrix" : 
			[
				1,
				0,
				0,
				0,
				0,
				1,
				0,
				0,
				0,
				0,
				1,
				0,
				0,
				0,
				0,
				1
			],
			"mesh" : 0,
			"name" : "node_MeshObject1583636800-PolyPaper21"
		},
		{
			"matrix" : 
			[
				1,
				0,
				0,
				0,
				0,
				1,
				0,
				0,
				0,
				0,
				1,
				0,
				0,
				0,
				0,
				1
			],
			"mesh" : 2,
			"name" : "node_MeshObject2102356864-PolyGem25"
		}
	],
	"scene" : 0,
	"scenes" : 
	[
		{
			"extras" : {},
			"name" : "defaultScene",
			"nodes" : 
			[
				2,
				1,
				3,
				0
			]
		}
	]
}